<svg id="Groupe_1" data-name="Groupe 1" xmlns="http://www.w3.org/2000/svg" width="1379" height="509" viewBox="0 0 1379 509">
  <rect id="Rectangle_1" data-name="Rectangle 1" width="1379" height="509" fill="#fff8f8"/>
  <g id="logo" transform="translate(137.467 97.233)">
    <path id="Tracé_1" data-name="Tracé 1" d="M694.969,366.928a30.6,30.6,0,0,0-18.874,6.1,40.366,40.366,0,0,0-13.006,16.328h-.517V367.913H621.725V498.495h40.848V437.779c0-7.836,1.6-14.264,4.836-19.378a31.789,31.789,0,0,1,13.006-11.731,40.678,40.678,0,0,1,17.372-3.847,53.329,53.329,0,0,1,8.4.751V367.867a26.077,26.077,0,0,0-5.869-.751,48.919,48.919,0,0,0-5.353-.235Z" transform="translate(-388.728 -229.404)"/>
    <path id="Tracé_2" data-name="Tracé 2" d="M925.655,358.233c-14.65,0-27.045,3.144-37.281,9.431a61.7,61.7,0,0,0-22.959,25.243,79,79,0,0,0-7.653,34.956q0,20.411,8.17,36.223a60.813,60.813,0,0,0,23.241,24.492q15.283,8.939,36.482,8.915,27.538,0,43.9-12.012a57.524,57.524,0,0,0,21.926-31.859h-41.6c-1.172,3.238-3.568,6.288-7.135,9.2q-5.071,4.082-16.056,4.082a29.4,29.4,0,0,1-19.674-7.179q-8.169-7.39-8.4-20.88h93.9V432.7q0-36.176-16.854-55.367-16.549-19.073-50-19.1Zm-26.81,55.32c.517-8.493,3.146-14.874,7.935-19.1,4.743-4.457,11.033-6.662,18.876-6.662s14.271,2.2,18.875,6.662c4.6,4.223,6.9,10.6,6.9,19.1Z" transform="translate(-536.402 -223.993)"/>
    <path id="Tracé_3" data-name="Tracé 3" d="M1422.218,358.86q-15.847,0-25.778,6.616a94.79,94.79,0,0,0-18.123,16.329h-.517a34.8,34.8,0,0,0-12.769-16.563c-5.776-4.27-12.912-6.381-21.458-6.381-9.861,0-18.31,2.393-25.262,7.132-6.993,4.6-12.159,9.854-15.584,15.813h-.517V362.942h-40.85V493.523h40.85v-75.5c0-9.009,1.969-15.578,5.866-19.66,3.9-4.27,9.015-6.381,15.307-6.381,7.326,0,12.253,1.971,14.791,5.865,2.534,3.754,3.848,10.557,3.848,20.411v75.261h40.85v-75.5c0-9.009,1.875-15.578,5.634-19.66,3.9-4.27,9.108-6.381,15.588-6.381,7.322,0,12.253,1.971,14.787,5.865,2.534,3.754,3.852,10.557,3.852,20.411v75.261H1464.1V405.265q0-22.451-11.22-34.44-10.989-11.965-30.615-11.965Z" transform="translate(-788.91 -224.385)"/>
    <path id="Tracé_4" data-name="Tracé 4" d="M1972.007,367.306q-12.747-8.446-30.143-8.446a49.3,49.3,0,0,0-17.093,2.815,50.727,50.727,0,0,0-12.769,6.9,33.821,33.821,0,0,0-7.888,7.367h-.517v-13H1862.75V538.708H1903.6V480.526h.517A42.555,42.555,0,0,0,1912,487.94a50.727,50.727,0,0,0,12.769,6.9,49.313,49.313,0,0,0,17.093,2.768c11.6,0,21.645-2.768,30.143-8.4,8.5-5.584,15.072-13.607,19.624-23.977q7.182-15.554,7.184-36.974,0-21.4-7.184-36.974C1987.078,380.913,1980.5,372.889,1972.007,367.306Zm-21.975,90.041q-6.834,9.643-19.392,9.666c-8.356,0-14.787-3.237-19.392-9.666-4.6-6.662-6.9-16.328-6.9-29.091s2.3-22.381,6.9-28.809c4.6-6.662,11.081-9.947,19.392-9.947s14.836,3.285,19.392,9.947q6.9,9.643,6.9,28.809C1956.935,441.019,1954.633,450.685,1950.032,457.347Z" transform="translate(-1165.164 -224.385)"/>
    <path id="Tracé_5" data-name="Tracé 5" d="M2309.07,231.517h-40.85V413.9h40.85Z" transform="translate(-1418.843 -144.714)"/>
    <path id="Tracé_6" data-name="Tracé 6" d="M2478.846,369.764H2438V500.392h40.846Z" transform="translate(-1525.065 -231.207)"/>
    <path id="Tracé_7" data-name="Tracé 7" d="M2724.082,370.95q-11.759-11.965-30.611-11.965-17.323,0-27.56,7.132-10.215,6.9-15.308,15.813h-.517V363.067H2609.24V493.648h40.846v-75.5c0-9.009,2.115-15.578,6.386-19.66,4.271-4.27,10.284-6.381,18.123-6.381,6.81,0,11.927,1.971,15.307,5.865,3.381,3.754,5.117,10.557,5.117,20.411v75.261h40.846V405.39q0-22.451-11.736-34.44Z" transform="translate(-1632.199 -224.464)"/>
    <path id="Tracé_8" data-name="Tracé 8" d="M151.958,169.2v57.619c0,16,3.24,27.449,9.719,34.44,6.432,6.991,16.855,10.463,31.129,10.463a99.957,99.957,0,0,0,11.972-.751,85.708,85.708,0,0,0,12.255-2.064V240.094c-2.348.328-4.32.563-5.869.751a41.233,41.233,0,0,1-5.071.281,18.854,18.854,0,0,1-9.719-2.3c-2.394-1.736-3.568-6.053-3.568-13.044V117.255c20.847-7.367,43.289-14.78,67.282-21.818C394.745,55.788,605.842,17.923,846.842,62.685l7.7-41.525c-249.828-46.4-468.483-7.038-607.883,34.206-18.922,5.584-36.9,11.355-53.853,17.126V35.753H151.958V87.178C58.008,122.7,3.309,155.73.4,157.56L22.419,193.6c.657-.375,48.032-29,129.54-61.044V169.2Z" transform="translate(0 0)"/>
    <path id="Tracé_9" data-name="Tracé 9" d="M2458.425,165.55A20.41,20.41,0,1,0,2438,145.14,20.417,20.417,0,0,0,2458.425,165.55Z" transform="translate(-1525.065 -77.904)"/>
  </g>
</svg>
