<svg width="774" height="246" viewBox="0 0 774 246" fill="none" xmlns="http://www.w3.org/2000/svg">
<path d="M137.319 153.106C137.319 184.267 137.319 188.689 137.319 205.311C137.319 219.807 140.254 230.18 146.124 236.515C151.952 242.849 161.396 245.995 174.328 245.995C178.029 245.995 181.645 245.74 185.176 245.315C188.749 244.975 192.45 244.379 196.279 243.444V217.342C194.152 217.639 192.365 217.852 190.961 218.022C189.6 218.192 188.069 218.277 186.367 218.277C182.794 218.277 179.859 217.554 177.561 216.194C175.392 214.621 174.328 210.71 174.328 204.376V106.045C193.216 99.3707 213.55 92.6538 235.288 86.277C357.292 50.3543 548.552 16.047 766.909 56.6036L773.885 18.9804C547.531 -23.0641 349.422 12.6036 223.122 49.9717C205.978 55.0306 189.685 60.2596 174.328 65.4886V32.2016H137.319V78.7949C52.1964 110.977 2.63747 140.905 0 142.563L19.9512 175.212C20.5468 174.872 63.4695 148.94 137.319 119.904V153.148V153.106Z" fill="black"/>
</svg>
