<svg width="415" height="350" viewBox="0 0 415 350" fill="none" xmlns="http://www.w3.org/2000/svg">
<path d="M221.785 49.161C235.542 39.0201 254.909 35.1325 270.064 43.0438C253.003 50.4357 239.113 63.611 230.85 80.2389C227.687 86.663 224.839 94.137 218.312 97.106C214.251 98.9536 209.458 98.5968 205.253 97.1051C201.047 95.6132 197.307 93.0789 193.618 90.5714L192.512 90.4385C199.076 74.6786 208.028 59.3018 221.785 49.161Z" fill="#F0F0F0"/>
<path d="M269.946 43.38C255.797 43.8224 242.146 48.7025 230.935 57.3272C228.488 59.1412 226.343 61.3286 224.579 63.809C222.939 66.2807 221.992 69.1456 221.836 72.1061C221.636 74.8635 221.751 77.7072 220.882 80.3679C220.417 81.7233 219.67 82.9653 218.691 84.0125C217.711 85.0597 216.521 85.8884 215.197 86.4443C211.937 87.9149 208.341 88.1287 204.817 88.2158C200.905 88.3125 196.839 88.3512 193.281 90.1895C192.85 90.4122 192.529 89.7317 192.96 89.5093C199.15 86.3109 206.384 88.3977 212.89 86.4941C215.926 85.6059 218.713 83.7993 219.932 80.7766C220.998 78.1333 220.882 75.2008 221.06 72.4071C221.17 69.5169 221.986 66.6973 223.439 64.1947C225.071 61.6326 227.128 59.3664 229.522 57.4929C234.843 53.1895 240.81 49.7477 247.203 47.2939C254.484 44.4529 262.198 42.8757 270.012 42.6306C270.496 42.6156 270.426 43.3651 269.946 43.38V43.38Z" fill="white"/>
<path d="M234.376 54.3384C233.181 52.2648 232.764 49.8349 233.199 47.4828C233.634 45.1306 234.892 43.0092 236.75 41.4975C237.127 41.193 237.619 41.7631 237.241 42.0681C235.509 43.4726 234.337 45.4487 233.937 47.6399C233.536 49.8311 233.934 52.093 235.058 54.0173C235.301 54.4357 234.618 54.7545 234.376 54.3384V54.3384Z" fill="white"/>
<path d="M221.75 70.6948C226.469 72.011 231.512 71.504 235.873 69.2748C236.305 69.0536 236.626 69.7341 236.195 69.9551C231.652 72.2663 226.403 72.7833 221.496 71.4029C221.028 71.271 221.285 70.5636 221.75 70.6948V70.6948Z" fill="white"/>
<path d="M254.446 45.4498C254.741 46.3482 255.255 47.1596 255.941 47.8109C256.628 48.4623 257.466 48.9332 258.38 49.1815C258.849 49.3075 258.591 50.0147 258.125 49.8896C257.117 49.6106 256.192 49.0893 255.432 48.3713C254.672 47.6534 254.099 46.7605 253.765 45.7709C253.725 45.6802 253.722 45.578 253.755 45.485C253.789 45.3921 253.856 45.3152 253.944 45.2702C254.035 45.2282 254.138 45.2234 254.232 45.2571C254.326 45.2907 254.403 45.3599 254.446 45.4498H254.446Z" fill="white"/>
<path d="M282.079 99.5719C281.784 99.5016 281.489 99.4313 281.189 99.3651C277.215 98.4403 273.173 97.8392 269.103 97.5676C268.788 97.5416 268.469 97.52 268.155 97.5031C258.34 96.9531 248.509 98.2262 239.16 101.258C235.441 102.467 231.82 103.958 228.328 105.716C223.505 108.144 218.469 111.159 213.277 111.836C212.736 111.912 212.191 111.956 211.644 111.965L192.435 91.7953C192.415 91.7276 192.389 91.6641 192.368 91.5961L191.564 90.8258C191.738 90.7226 191.921 90.6193 192.094 90.516C192.195 90.4557 192.3 90.4 192.4 90.3397C192.469 90.3009 192.537 90.2623 192.597 90.2234C192.62 90.2104 192.643 90.1977 192.661 90.189C192.72 90.1501 192.78 90.1203 192.834 90.0858C193.853 89.5054 194.877 88.9312 195.907 88.363C195.911 88.3587 195.911 88.3587 195.92 88.3588C203.779 84.0499 212.068 80.3579 220.654 78.0387C220.913 77.969 221.175 77.8947 221.442 77.8343C225.319 76.8103 229.272 76.1042 233.264 75.723C235.45 75.5213 237.645 75.4301 239.841 75.4499C245.513 75.5119 251.141 76.4639 256.518 78.2711C267.235 81.8752 276.677 88.8596 281.702 98.8081C281.831 99.0627 281.955 99.3129 282.079 99.5719Z" fill="#F0F0F0"/>
<path d="M281.782 99.7698C270.218 91.6219 256.375 87.3173 242.219 87.4675C239.171 87.4459 236.139 87.9038 233.234 88.8244C230.433 89.8125 227.948 91.5309 226.038 93.8013C224.214 95.8825 222.59 98.2221 220.291 99.8246C219.102 100.628 217.757 101.171 216.343 101.418C214.929 101.666 213.478 101.612 212.087 101.261C208.596 100.476 205.596 98.4864 202.73 96.4388C199.547 94.1655 196.278 91.7539 192.328 91.084C191.85 91.0028 192.004 90.2665 192.482 90.3475C199.354 91.513 203.871 97.5255 210.215 99.9147C213.174 101.03 216.489 101.261 219.286 99.5799C221.732 98.1098 223.409 95.6987 225.237 93.5755C227.068 91.3334 229.421 89.5729 232.091 88.4476C234.94 87.3823 237.949 86.8086 240.991 86.751C247.837 86.5122 254.677 87.3491 261.262 89.2308C268.79 91.3368 275.901 94.7123 282.287 99.2112C282.683 99.4898 282.175 100.047 281.782 99.7698L281.782 99.7698Z" fill="white"/>
<path d="M246.771 87.1514C247.068 84.7779 248.201 82.5872 249.967 80.9704C251.734 79.3535 254.018 78.4159 256.414 78.325C256.898 78.3082 256.947 79.0591 256.462 79.0758C254.231 79.1564 252.103 80.03 250.461 81.539C248.819 83.0479 247.772 85.0928 247.509 87.3045C247.451 87.7851 246.713 87.6292 246.771 87.1514H246.771Z" fill="white"/>
<path d="M226.822 92.6248C229.795 96.5109 234.128 99.1357 238.954 99.9759C239.433 100.059 239.279 100.795 238.801 100.712C233.78 99.8287 229.277 97.088 226.191 93.0372C225.897 92.6509 226.529 92.2406 226.822 92.6248V92.6248Z" fill="white"/>
<path d="M268.156 92.111C267.85 93.0054 267.77 93.9619 267.926 94.8944C268.081 95.827 268.466 96.7065 269.046 97.454C269.344 97.8364 268.712 98.2463 268.415 97.8664C267.778 97.0377 267.355 96.0658 267.181 95.0359C267.007 94.0059 267.089 92.9491 267.418 91.9579C267.442 91.8618 267.501 91.7782 267.584 91.7241C267.666 91.6699 267.767 91.6492 267.864 91.6662C267.962 91.687 268.047 91.7453 268.102 91.8286C268.157 91.9119 268.176 92.0134 268.156 92.111V92.111Z" fill="white"/>
<path d="M218.16 64.2473H216.671V23.5529C216.671 20.4599 216.061 17.3971 214.875 14.5396C213.688 11.682 211.95 9.08557 209.758 6.89848C207.567 4.71139 204.965 2.97651 202.101 1.79286C199.237 0.609219 196.168 1.66745e-06 193.069 0H106.671C103.571 -6.66954e-06 100.502 0.609198 97.6386 1.79283C94.775 2.97647 92.1731 4.71135 89.9814 6.89843C87.7897 9.08551 86.0511 11.682 84.865 14.5395C83.6789 17.3971 83.0684 20.4598 83.0684 23.5528V246.806C83.0684 253.053 85.555 259.043 89.9813 263.46C94.4076 267.877 100.411 270.359 106.671 270.359H193.069C199.328 270.359 205.332 267.877 209.758 263.46C214.184 259.043 216.671 253.053 216.671 246.806V93.2144H218.16V64.2473Z" fill="#3F3D56"/>
<path d="M194.016 6.12746H182.738C183.257 7.39632 183.455 8.77298 183.315 10.1362C183.175 11.4994 182.701 12.8073 181.935 13.9446C181.169 15.082 180.134 16.0139 178.923 16.6584C177.711 17.3028 176.358 17.6399 174.985 17.64H125.489C124.116 17.6399 122.764 17.3028 121.552 16.6584C120.34 16.014 119.305 15.082 118.539 13.9447C117.773 12.8073 117.299 11.4994 117.159 10.1362C117.019 8.77298 117.217 7.3963 117.736 6.12744H107.202C102.527 6.12744 98.0442 7.98056 94.7387 11.2791C91.4332 14.5777 89.5762 19.0515 89.5762 23.7164V246.642C89.5762 248.952 90.0321 251.239 90.9179 253.373C91.8037 255.507 93.102 257.446 94.7387 259.079C96.3754 260.713 98.3185 262.008 100.457 262.892C102.595 263.776 104.887 264.231 107.202 264.231H194.016C196.331 264.231 198.623 263.776 200.761 262.892C202.9 262.008 204.843 260.713 206.48 259.079C208.116 257.446 209.415 255.507 210.301 253.373C211.186 251.239 211.642 248.952 211.642 246.642V246.642V23.7164C211.642 19.0515 209.785 14.5777 206.48 11.2791C203.174 7.98057 198.691 6.12746 194.016 6.12746Z" fill="white"/>
<path d="M152.276 192.619C145.883 192.625 139.551 191.373 133.644 188.934C127.737 186.496 122.369 182.918 117.849 178.407C113.328 173.896 109.744 168.54 107.3 162.645C104.856 156.75 103.601 150.432 103.607 144.053C103.598 135.095 106.076 126.309 110.765 118.671C115.454 111.032 122.172 104.839 130.174 100.777C135.973 97.8328 142.305 96.0763 148.796 95.6114C155.287 95.1466 161.805 95.9827 167.967 98.0706C178.88 101.782 188.118 109.238 194.037 119.111C199.956 128.984 202.171 140.633 200.287 151.983C198.403 163.333 192.543 173.648 183.751 181.089C174.959 188.531 163.805 192.617 152.276 192.619L152.276 192.619ZM152.276 97.3911C144.892 97.3694 137.611 99.1122 131.041 102.474C125.298 105.393 120.222 109.466 116.132 114.437C112.041 119.407 109.025 125.168 107.271 131.357C105.518 137.546 105.066 144.03 105.943 150.402C106.82 156.774 109.008 162.896 112.369 168.384C115.73 173.872 120.191 178.608 125.473 182.293C130.756 185.979 136.744 188.535 143.063 189.801C149.383 191.067 155.896 191.016 162.194 189.651C168.493 188.286 174.44 185.636 179.664 181.868C182.189 180.05 184.524 177.982 186.634 175.696C192.804 169.034 196.894 160.721 198.402 151.775C199.91 142.828 198.772 133.637 195.125 125.327C191.479 117.017 185.483 109.948 177.873 104.986C170.262 100.025 161.367 97.3851 152.276 97.3911V97.3911Z" fill="#F0F0F0"/>
<path d="M46.8202 100.952C48.1561 101.119 49.439 101.576 50.5786 102.292C51.7182 103.007 52.6867 103.963 53.4159 105.092C54.1452 106.222 54.6174 107.497 54.7993 108.828C54.9813 110.159 54.8685 111.514 54.469 112.797L70.6391 126.238L64.8506 138.036L42.2825 118.735C40.1671 117.922 38.4239 116.364 37.3832 114.354C36.3425 112.345 36.0766 110.024 36.6359 107.832C37.1953 105.64 38.541 103.729 40.418 102.461C42.295 101.193 44.573 100.656 46.8202 100.952L46.8202 100.952Z" fill="#FFB6B6"/>
<path d="M197.841 157.004C197.516 153.525 196.176 147.271 195.038 144.959C191.541 135.825 168.945 128.318 165.91 127.35L165.141 118.811L133.745 115.44L129.762 126.36L118.502 130.575C117.737 130.86 117.045 131.309 116.476 131.892C115.906 132.475 115.472 133.176 115.206 133.946V133.946L105.104 136.86L95.1348 139.736L60.5008 115.383L58.8656 116.45L47.9361 123.566L46.25 124.665L91.0694 165.016L107.718 161.118L120.239 158.178L121.307 162.508L118.54 177.719C126.557 185.723 137.17 190.614 148.474 191.516C159.779 192.417 171.035 189.27 180.225 182.639L187.337 176.342C192.294 170.993 195.953 164.579 198.031 157.594L197.841 157.004Z" fill="#E4E4E4"/>
<path d="M159.306 108.457C171.158 104.541 177.585 91.7793 173.661 79.9523C169.737 68.1254 156.948 61.7121 145.096 65.6279C133.245 69.5436 126.818 82.3057 130.742 94.1326C134.666 105.96 147.455 112.373 159.306 108.457Z" fill="#FFB6B6"/>
<path d="M134.347 61.3256C136.545 58.1938 139.843 56.0016 143.586 55.1848C147.286 54.4253 151.138 55.1302 154.328 57.151C157.796 55.7567 161.536 54.8317 165.21 55.302C168.884 55.7722 172.485 57.8202 174.185 61.1942C174.543 62.0683 174.977 62.9092 175.482 63.7074C176.98 65.7015 179.764 65.9602 182.222 66.056C180.979 66.7794 179.736 67.5027 178.493 68.226C179.732 68.802 180.97 69.3781 182.21 69.9542C180.523 70.5965 178.837 71.2388 177.151 71.8812C181.076 75.3236 182.025 81.4498 180.539 86.5861C179.132 91.449 175.907 95.5426 172.305 99.0472C171.602 96.4322 172.375 93.5971 172.89 90.8897C173.433 88.029 173.521 84.684 171.513 82.6643C170.159 81.3019 168.173 80.8903 166.3 80.5598C156.854 78.8926 147.32 77.7629 137.744 77.1762C136.463 76.9995 135.157 77.1325 133.938 77.564C131.608 78.5973 130.672 81.435 129.996 83.9512C129.673 79.5346 129.931 75.0948 130.765 70.7453C131.404 67.4163 132.41 64.0844 134.347 61.3256Z" fill="#2F2E41"/>
<path d="M163.729 215.501H137.009C136.081 215.501 135.191 215.133 134.535 214.478C133.878 213.823 133.51 212.935 133.51 212.009C133.51 211.083 133.878 210.195 134.535 209.54C135.191 208.885 136.081 208.517 137.009 208.517H163.729C164.657 208.517 165.547 208.885 166.203 209.54C166.859 210.195 167.228 211.083 167.228 212.009C167.228 212.935 166.859 213.823 166.203 214.478C165.547 215.133 164.657 215.501 163.729 215.501V215.501Z" fill="#FF3981"/>
<path d="M76.0533 28.6481H2.55808C1.88082 28.6471 1.23165 28.3778 0.753137 27.8996C0.274621 27.4213 0.00585938 26.7731 0.00585938 26.0973C0.00585938 25.4214 0.274621 24.7732 0.753137 24.2949C1.23165 23.8167 1.88082 23.5475 2.55808 23.5464H76.0533C76.7312 23.5464 77.3814 23.8151 77.8608 24.2935C78.3402 24.7719 78.6095 25.4207 78.6095 26.0973C78.6095 26.7738 78.3402 27.4226 77.8608 27.901C77.3814 28.3794 76.7312 28.6481 76.0533 28.6481V28.6481Z" fill="#FF3981"/>
<path d="M118.485 44.9401H2.55608C1.87817 44.9401 1.22802 44.6713 0.748657 44.193C0.269298 43.7146 0 43.0658 0 42.3893C0 41.7129 0.269298 41.0641 0.748657 40.5857C1.22802 40.1074 1.87817 39.8386 2.55608 39.8386H118.485C119.163 39.8386 119.813 40.1074 120.292 40.5857C120.772 41.0641 121.041 41.7129 121.041 42.3893C121.041 43.0658 120.772 43.7146 120.292 44.193C119.813 44.6713 119.163 44.9401 118.485 44.9401Z" fill="#FF3981"/>
<path d="M96.2071 60.2894H2.55608C1.87817 60.2894 1.22801 60.0207 0.748656 59.5423C0.269298 59.064 0 58.4152 0 57.7387C0 57.0622 0.269298 56.4134 0.748656 55.9351C1.22801 55.4567 1.87817 55.188 2.55608 55.188H96.2071C96.8851 55.188 97.5352 55.4567 98.0145 55.9351C98.4939 56.4134 98.7632 57.0622 98.7632 57.7387C98.7632 58.4152 98.4939 59.064 98.0145 59.5423C97.5352 60.0207 96.8851 60.2894 96.2071 60.2894V60.2894Z" fill="#CACACA"/>
<path d="M55.3653 75.5814H2.55608C1.87817 75.5814 1.22801 75.3127 0.748656 74.8343C0.269298 74.356 0 73.7072 0 73.0307C0 72.3542 0.269298 71.7054 0.748656 71.2271C1.22801 70.7487 1.87817 70.48 2.55608 70.48H55.3653C56.0432 70.48 56.6933 70.7487 57.1727 71.2271C57.652 71.7054 57.9213 72.3542 57.9213 73.0307C57.9213 73.7072 57.652 74.356 57.1727 74.8343C56.6933 75.3127 56.0432 75.5814 55.3653 75.5814V75.5814Z" fill="#CACACA"/>
<path d="M84.5401 90.8727H2.5579C1.88069 90.8716 1.23159 90.6024 0.753099 90.1242C0.274611 89.6459 0.00585938 88.9978 0.00585938 88.322C0.00585938 87.6462 0.274611 86.998 0.753099 86.5197C1.23159 86.0415 1.88069 85.7723 2.5579 85.7712H84.5401C85.2173 85.7723 85.8664 86.0415 86.3449 86.5197C86.8234 86.998 87.0921 87.6462 87.0921 88.322C87.0921 88.9978 86.8234 89.6459 86.3449 90.1242C85.8664 90.6024 85.2173 90.8716 84.5401 90.8727V90.8727Z" fill="#CACACA"/>
<path d="M315.586 340.425L308.999 340.424L305.865 315.069L315.587 315.07L315.586 340.425Z" fill="#9F616A"/>
<path d="M318.178 349.522L293.029 349.521V349.203C293.029 346.613 294.061 344.128 295.897 342.296C297.732 340.465 300.222 339.435 302.818 339.435H302.819L307.412 335.958L315.983 339.436L318.179 339.436L318.178 349.522Z" fill="#2F2E41"/>
<path d="M311.75 221.263L308.845 185.915L306.562 172.647L319.341 169.831L323.581 187.995L319.887 222.244C320.632 223.155 321.087 224.268 321.194 225.439C321.3 226.61 321.053 227.787 320.485 228.817C319.917 229.847 319.052 230.685 318.003 231.221C316.955 231.758 315.769 231.969 314.599 231.828C313.429 231.687 312.328 231.2 311.437 230.429C310.546 229.659 309.907 228.641 309.6 227.505C309.294 226.369 309.335 225.168 309.718 224.056C310.101 222.943 310.809 221.971 311.75 221.263H311.75Z" fill="#9F616A"/>
<path d="M280.598 340.425L274.011 340.424L270.877 315.069L280.599 315.07L280.598 340.425Z" fill="#9F616A"/>
<path d="M270.054 229.276L267.134 234.316C267.134 234.316 263.926 235.191 264.974 245.629C266.023 256.066 266.068 317.906 271.144 325.516L272.062 332.05L281.648 332.964L281.89 327.166L293.319 246.613C293.319 246.613 300.05 325.691 305.619 327.626L307.63 334.214L316.414 334.218L315.896 326.454L316.462 228.458L270.054 229.276Z" fill="#2F2E41"/>
<path d="M266.845 233.932L266.643 233.881C272.67 211.384 270.931 182.252 266.676 150.971L266.676 150.841L282.061 136.779H295.421L308.665 145.308C317.227 149.58 319.173 158.627 319.192 158.718L319.205 158.782L313.958 177.056L317.911 229.903L317.915 229.964L317.893 230.021C316.614 233.258 313.186 232.797 309.217 232.263C305.256 231.73 290.656 236.604 286.179 236.604C277.431 236.604 267.47 234.092 266.845 233.932Z" fill="#E4E4E4"/>
<path d="M305.892 152.431L311.631 149.939L319.193 159.191L325.322 188.837L304.328 185.663L305.892 152.431Z" fill="#E4E4E4"/>
<path d="M217.612 207.098L243.849 183.174L252.968 173.253L263.02 181.615L251.219 196.077L221.814 214.12C221.548 215.266 220.945 216.306 220.082 217.107C219.218 217.908 218.135 218.433 216.971 218.615C215.806 218.797 214.614 218.627 213.547 218.128C212.48 217.628 211.587 216.822 210.982 215.812C210.378 214.802 210.09 213.635 210.156 212.461C210.221 211.287 210.637 210.159 211.35 209.222C212.062 208.285 213.039 207.582 214.155 207.204C215.271 206.826 216.475 206.789 217.612 207.098L217.612 207.098Z" fill="#9F616A"/>
<path d="M243.279 183.434L250.546 174.017C250.606 173.882 256.635 160.438 261.861 154.596C267.222 148.604 271.442 151.668 271.484 151.701L271.589 151.78L271.881 173.909L251.76 197.901L243.279 183.434Z" fill="#E4E4E4"/>
<path d="M299.503 123.533C300.586 116.871 296.052 110.593 289.376 109.512C282.699 108.431 276.408 112.956 275.325 119.618C274.242 126.281 278.776 132.558 285.452 133.639C292.129 134.72 298.419 130.196 299.503 123.533Z" fill="#9F616A"/>
<path d="M276.217 119.762C276.217 119.762 276.119 115.465 275.575 113.564C275.031 111.663 273.942 110.034 274.486 110.034C275.031 110.034 275.303 108.676 275.303 108.676C275.303 108.676 275.847 108.404 276.119 108.676C276.391 108.947 276.664 106.775 276.664 106.775C276.664 106.775 276.936 105.96 277.208 106.503C277.48 107.046 277.48 106.775 277.752 105.96C278.024 105.145 279.385 104.602 279.385 104.602C279.385 104.602 284.556 104.873 285.373 103.787C286.189 102.701 295.442 103.516 297.347 104.873C299.253 106.231 307.689 111.12 306.329 115.194C304.968 119.267 301.051 128.647 300.069 129.588C298.517 131.075 297.442 131.611 290.097 133.069C288.66 133.355 281.323 128.673 281.323 127.858C281.323 127.043 282.207 124.459 280.786 124.105C278.636 123.568 278.395 126.28 277.85 125.465C277.306 124.65 276.217 119.762 276.217 119.762Z" fill="#2F2E41"/>
<path d="M283.184 349.522L258.035 349.521V349.203C258.035 346.613 259.067 344.128 260.902 342.296C262.738 340.465 265.228 339.435 267.824 339.435H267.824L272.418 335.958L280.989 339.436L283.185 339.436L283.184 349.522Z" fill="#2F2E41"/>
<path d="M413.916 350H2.11687C1.91597 350 1.72331 349.92 1.58125 349.778C1.43919 349.637 1.35938 349.444 1.35938 349.244C1.35938 349.043 1.43919 348.851 1.58125 348.709C1.72331 348.568 1.91597 348.488 2.11687 348.488H413.916C414.117 348.488 414.31 348.568 414.452 348.709C414.594 348.851 414.674 349.043 414.674 349.244C414.674 349.444 414.594 349.637 414.452 349.778C414.31 349.92 414.117 350 413.916 350V350Z" fill="#EC6A20"/>
</svg>
