<svg width="325" height="350" viewBox="0 0 325 350" fill="none" xmlns="http://www.w3.org/2000/svg">
<g clip-path="url(#clip0_372_10760)">
<path d="M140.631 112.295C140.388 109.866 139.595 107.523 138.313 105.444C137.032 103.365 135.294 101.603 133.232 100.29C131.169 98.9777 128.835 98.1491 126.405 97.8667C123.975 97.5843 121.513 97.8554 119.203 98.6598L120.376 98.7792C115.116 99.8291 110.442 102.809 107.276 107.13C105.73 109.29 104.667 111.757 104.16 114.363C103.653 116.969 103.713 119.653 104.336 122.234C105.665 127.359 109.589 131.806 114.611 133.512C117.404 134.46 120.402 134.576 123.351 134.676C125.265 134.741 127.214 134.799 129.059 134.287C131.433 133.554 133.519 132.102 135.03 130.134C136.527 128.172 137.718 125.997 138.562 123.68C139.992 120.057 141.019 116.169 140.631 112.295Z" fill="#2F2E41"/>
<path d="M182.332 348.432C178.162 332.782 187.422 317.528 198.243 306.969C204.01 301.341 210.432 296.449 216.694 291.395C222.704 286.599 228.427 281.456 233.833 275.993C244.274 265.329 253.381 253.143 259.412 239.444C265.147 226.418 267.858 212.228 266.515 198.015C265.242 184.534 260.4 171.274 251.493 160.932C250.383 159.643 249.215 158.408 247.99 157.226C247.333 156.589 246.326 157.592 246.984 158.23C256.931 167.867 262.72 180.928 264.679 194.515C266.7 208.528 264.618 222.813 259.367 235.914C253.773 249.869 244.879 262.322 234.563 273.189C229.368 278.627 223.842 283.74 218.016 288.498C211.794 293.613 205.329 298.445 199.404 303.911C188.485 313.984 178.671 327.84 180.019 343.438C180.176 345.252 180.491 347.05 180.96 348.81C181.016 348.985 181.137 349.133 181.299 349.221C181.461 349.309 181.651 349.331 181.829 349.282C182.007 349.233 182.159 349.117 182.252 348.959C182.346 348.8 182.375 348.612 182.332 348.432V348.432Z" fill="#EC6A20"/>
<path d="M226 259.338C219.429 248.096 214.403 236.023 211.059 223.444C207.703 210.868 206.025 197.905 206.067 184.891C206.115 171.877 207.699 158.538 211.741 146.128C215.578 134.35 222.453 123.118 233.368 116.691C238.934 113.433 245.288 111.758 251.741 111.849C258.556 111.914 265.277 113.704 271.418 116.602C277.432 119.441 282.932 123.267 288.012 127.532C292.855 131.591 297.375 136.02 301.531 140.779C309.764 150.227 316.49 161.166 320.247 173.16C324.163 185.66 324.849 199.333 321.215 211.984C317.725 224.136 310.079 234.493 300.693 242.812C290.549 251.803 278.533 258.337 266.416 264.267C263.383 265.751 260.334 267.202 257.285 268.652C256.459 269.045 257.18 270.269 258.003 269.877C270.779 263.801 283.682 257.672 295.072 249.188C305.121 241.703 314.079 232.306 319.408 220.86C325.043 208.755 326.198 194.992 323.862 181.933C321.579 169.169 315.853 157.224 308.188 146.82C304.38 141.673 300.147 136.853 295.534 132.409C290.802 127.745 285.634 123.543 280.102 119.858C268.762 112.462 254.582 107.995 241.143 111.805C229.195 115.192 220 124.745 214.529 135.57C211.467 141.629 209.403 148.146 207.934 154.758C206.502 161.274 205.539 167.884 205.052 174.538C203.099 201.087 208.314 227.674 220.153 251.529C221.595 254.422 223.135 257.264 224.772 260.054C224.87 260.21 225.026 260.321 225.205 260.365C225.384 260.408 225.574 260.381 225.733 260.288C225.892 260.195 226.009 260.044 226.059 259.867C226.109 259.689 226.088 259.5 226 259.338Z" fill="#EC6A20"/>
<path d="M216.992 245.618C210.421 234.376 205.396 222.303 202.051 209.724C198.696 197.148 197.017 184.185 197.06 171.171C197.107 158.158 198.691 144.818 202.734 132.408C206.571 120.631 213.445 109.398 224.36 102.971C229.926 99.7131 236.28 98.0386 242.733 98.1295C249.548 98.1939 256.27 99.984 262.41 102.883C268.424 105.721 273.924 109.547 279.004 113.812C283.848 117.871 288.367 122.3 292.523 127.059C300.756 136.507 307.482 147.446 311.239 159.441C315.155 171.941 315.841 185.613 312.207 198.265C308.717 210.416 301.071 220.773 291.685 229.093C281.541 238.083 269.525 244.617 257.408 250.547C254.376 252.032 251.326 253.482 248.277 254.932C247.451 255.325 248.172 256.549 248.995 256.158C261.772 250.081 274.674 243.952 286.064 235.468C296.113 227.983 305.071 218.586 310.4 207.14C316.035 195.036 317.19 181.273 314.854 168.213C312.572 155.45 306.845 143.504 299.18 133.1C295.372 127.953 291.139 123.133 286.526 118.689C281.794 114.026 276.626 109.823 271.094 106.138C259.755 98.742 245.574 94.2755 232.135 98.0854C220.188 101.472 210.993 111.025 205.521 121.85C202.459 127.91 200.395 134.426 198.927 141.038C197.494 147.554 196.531 154.164 196.044 160.818C194.091 187.367 199.306 213.954 211.145 237.81C212.587 240.703 214.127 243.544 215.764 246.334C215.863 246.49 216.018 246.601 216.197 246.645C216.376 246.689 216.566 246.661 216.725 246.568C216.884 246.475 217.001 246.324 217.051 246.147C217.101 245.97 217.08 245.78 216.992 245.618Z" fill="#EC6A20"/>
<path d="M87.516 219.021C87.0143 218.314 86.6739 217.507 86.5186 216.656C86.3634 215.804 86.3972 214.929 86.6176 214.092C86.8379 213.255 87.2396 212.476 87.7942 211.811C88.3488 211.145 89.0428 210.609 89.8275 210.24L106.267 158.874L117.717 164.809L97.9567 213.434C98.4903 214.791 98.5067 216.295 98.0028 217.663C97.4989 219.031 96.5098 220.166 95.2228 220.855C93.9359 221.544 92.4405 221.737 91.0201 221.399C89.5996 221.061 88.3529 220.215 87.516 219.021H87.516Z" fill="#FFB6B6"/>
<path d="M100.947 165.977C100.789 165.63 100.709 165.252 100.711 164.871C100.713 164.489 100.798 164.113 100.959 163.767L106.59 151.687C107.145 149.815 108.422 148.24 110.139 147.307C111.856 146.373 113.875 146.157 115.751 146.706C117.628 147.255 119.21 148.524 120.151 150.235C121.091 151.946 121.314 153.959 120.769 155.834L118.887 169.067C118.833 169.445 118.699 169.807 118.492 170.128C118.286 170.449 118.012 170.722 117.691 170.928C117.369 171.134 117.007 171.269 116.628 171.322C116.25 171.376 115.864 171.348 115.498 171.24L102.616 167.431C102.249 167.323 101.91 167.137 101.622 166.886C101.334 166.635 101.104 166.325 100.947 165.977Z" fill="#2F2E41"/>
<path d="M148.44 168.016C144.528 178.239 145.527 188.962 150.346 200.074H116.211C117.583 192.168 117.027 184.821 111.944 178.785L148.44 168.016Z" fill="#FFB6B6"/>
<path d="M108.491 149.229L118.593 141.897L135.124 137.315L148.9 140.064L149.71 147.661C150.695 156.9 150.267 166.236 148.441 175.347L112.623 183.596L108.95 177.18C108.95 177.18 100.684 168.932 107.113 159.768L108.491 149.229Z" fill="#2F2E41"/>
<path d="M196.234 97.9471C196.46 98.7829 196.499 99.6578 196.349 100.51C196.199 101.363 195.863 102.172 195.366 102.881C194.868 103.59 194.221 104.182 193.47 104.614C192.719 105.047 191.881 105.31 191.017 105.384L157.762 147.886L149.082 138.36L184.5 99.5778C184.471 98.1209 184.978 96.7038 185.925 95.595C186.873 94.4862 188.195 93.7628 189.641 93.5618C191.088 93.3608 192.558 93.6962 193.773 94.5044C194.988 95.3127 195.864 96.5376 196.234 97.9471Z" fill="#FFB6B6"/>
<path d="M165.219 143.062C165.246 143.442 165.19 143.824 165.056 144.181C164.921 144.538 164.711 144.862 164.44 145.131L154.964 154.516C153.793 156.08 152.049 157.116 150.113 157.398C148.178 157.681 146.21 157.186 144.64 156.022C143.07 154.858 142.026 153.12 141.738 151.19C141.45 149.26 141.94 147.294 143.102 145.724L149.462 133.96C149.644 133.625 149.896 133.332 150.201 133.102C150.506 132.872 150.857 132.711 151.231 132.629C151.604 132.547 151.991 132.546 152.364 132.626C152.738 132.706 153.09 132.866 153.396 133.095L164.158 141.121C164.464 141.349 164.718 141.641 164.901 141.976C165.084 142.311 165.192 142.681 165.219 143.062Z" fill="#2F2E41"/>
<path d="M108.535 339.129H113.766L116.254 318.996H108.534L108.535 339.129Z" fill="#FFB6B6"/>
<path d="M106.763 336.555L115.032 336.062V339.598L122.894 345.015C123.282 345.283 123.574 345.667 123.728 346.113C123.882 346.558 123.889 347.04 123.749 347.49C123.609 347.939 123.328 348.332 122.948 348.611C122.568 348.89 122.108 349.041 121.636 349.041H111.792L110.095 345.544L109.432 349.041H105.721L106.763 336.555Z" fill="#2F2E41"/>
<path d="M145.515 339.129H150.745L153.234 318.996H145.514L145.515 339.129Z" fill="#FFB6B6"/>
<path d="M143.743 336.555L152.012 336.062V339.598L159.873 345.015C160.261 345.283 160.554 345.667 160.708 346.113C160.862 346.558 160.869 347.04 160.729 347.49C160.588 347.939 160.307 348.332 159.927 348.611C159.547 348.89 159.088 349.041 158.616 349.041H148.771L147.074 345.544L146.412 349.041H142.7L143.743 336.555Z" fill="#2F2E41"/>
<path d="M159.411 226.326V236.592L158.406 249.134C158.406 249.134 158.088 260.086 157.704 268.724C157.472 273.976 157.211 278.371 156.984 278.938C156.704 279.634 156.77 281.531 156.931 283.523C157.121 285.827 157.434 288.258 157.486 289.072C157.586 290.591 156.78 297.115 156.78 297.115C156.78 297.115 155.879 313.474 154.57 314.78C153.262 316.086 154.57 319.799 154.57 319.799C148.436 324.313 140.689 318.796 140.689 318.796C142.4 316.076 139.684 297.507 139.684 297.507C139.684 297.507 139.285 291.168 138.48 289.465C137.674 287.762 137.47 277.122 137.47 277.122V261.363C137.47 261.363 135.355 258.137 135.057 256.632C134.758 255.128 135.057 249.81 135.057 249.81L132.847 242.383L131.335 248.202C131.335 248.202 127.419 264.462 126.712 266.468C126.006 268.474 127.111 270.484 127.111 270.484C127.111 270.484 128.121 273.578 127.111 274.997C126.483 275.887 126.003 276.871 125.689 277.912C125.689 277.912 125.172 283.835 124.266 285.954C123.361 288.074 122.559 290.685 122.559 290.685C122.559 290.685 122.773 294.688 121.867 295.591C120.962 296.495 120.663 301.013 120.663 301.013C120.663 301.013 120.862 306.127 119.653 307.934C118.444 309.741 118.444 319.979 118.444 319.979C116.348 321.322 113.932 322.085 111.443 322.19C108.954 322.296 106.481 321.74 104.278 320.58C104.278 320.58 105.473 319.463 104.567 314.259C103.662 309.055 105.217 294.886 105.217 294.886C105.217 294.886 105.018 291.291 106.023 289.682C107.028 288.074 105.516 284.966 105.919 283.56C106.322 282.155 107.531 274.524 107.531 274.524C107.531 274.524 107.028 255.757 107.028 254.754C106.909 252.969 106.425 251.227 105.606 249.635C104.7 248.031 105.606 236.389 105.606 236.389C105.606 236.389 107.739 230.371 107.028 229.065C106.317 227.759 107.502 225.451 107.502 225.451C107.502 225.451 106.397 222.74 107.502 222.238C108.607 221.737 108.811 219.731 108.811 219.731L109.579 209.995C109.579 209.995 109.868 205.576 110.788 205.377C111.707 205.179 111.304 203.476 112.21 202.269C112.651 201.454 112.955 200.571 113.111 199.658C113.239 199.099 113.357 198.518 113.457 197.959C113.741 196.445 113.917 195.14 113.917 195.14C119.852 200.06 151.062 196.611 151.095 196.611C153.077 197.041 155.433 203.906 157.135 209.891C158.648 215.238 159.414 220.769 159.411 226.326Z" fill="#2F2E41"/>
<path d="M136.71 124.397C138.985 116.929 134.762 109.035 127.279 106.765C119.796 104.495 111.885 108.708 109.61 116.176C107.335 123.643 111.558 131.537 119.041 133.807C126.524 136.077 134.435 131.864 136.71 124.397Z" fill="#FFB6B6"/>
<path d="M107.153 122.749L112.637 121.611L113.647 114.349L115.54 121.008L118.161 120.464L118.75 116.227L119.855 120.112L139.331 116.068C138.93 114.145 138.153 112.319 137.045 110.695C135.936 109.071 134.519 107.681 132.872 106.604C131.226 105.527 129.383 104.784 127.448 104.418C125.514 104.052 123.527 104.069 121.599 104.469L118.777 105.056C114.884 105.864 111.472 108.182 109.293 111.5C107.113 114.819 106.343 118.865 107.153 122.749Z" fill="#2F2E41"/>
<path d="M163.255 16.4869L163.219 16.5559C156.067 13.2679 147.921 12.8513 140.47 15.3925C133.018 17.9337 126.832 23.238 123.193 30.2063C119.553 37.1747 118.739 45.273 120.92 52.8237C123.101 60.3744 128.108 66.7987 134.906 70.7656L134.87 70.8346L189.333 99.1598L217.718 44.8121C219.587 41.2431 220.732 37.3417 221.089 33.3309C221.445 29.32 221.006 25.2783 219.796 21.4369C218.587 17.5955 216.63 14.0296 214.039 10.9432C211.447 7.85673 208.272 5.31021 204.693 3.44919C201.115 1.58817 197.204 0.449152 193.184 0.0972371C189.165 -0.254678 185.115 0.187414 181.266 1.39824C177.418 2.60907 173.847 4.56489 170.756 7.1539C167.666 9.74291 165.117 12.9143 163.255 16.4869Z" fill="#FF3981"/>
<path d="M211.779 328.351L211.77 328.368C209.962 327.537 207.903 327.432 206.02 328.074C204.136 328.717 202.573 330.057 201.653 331.818C200.733 333.58 200.527 335.627 201.079 337.535C201.63 339.443 202.895 341.067 204.614 342.07L204.604 342.087L218.37 349.246L225.544 335.51C226.017 334.608 226.306 333.622 226.396 332.608C226.487 331.594 226.376 330.573 226.07 329.602C225.764 328.631 225.27 327.729 224.615 326.949C223.96 326.169 223.157 325.525 222.253 325.055C221.348 324.585 220.36 324.297 219.343 324.208C218.327 324.119 217.304 324.231 216.331 324.537C215.358 324.843 214.456 325.337 213.675 325.992C212.893 326.646 212.249 327.448 211.779 328.351Z" fill="#FF3981"/>
<path d="M29.1726 154.18V154.258C21.3073 154.641 13.891 158.028 8.46011 163.718C3.02922 169.408 -3.65653e-06 176.965 0 184.823C3.65654e-06 192.681 3.02925 200.238 8.46014 205.928C13.891 211.618 21.3073 215.006 29.1726 215.389V215.466L90.5889 215.466L90.5889 154.18C90.5928 150.154 89.8013 146.166 88.2599 142.444C86.7184 138.723 84.457 135.342 81.6051 132.493C78.7532 129.645 75.3667 127.385 71.6391 125.843C67.9115 124.301 63.9159 123.508 59.8807 123.508C55.8456 123.508 51.85 124.301 48.1224 125.843C44.3948 127.385 41.0083 129.645 38.1564 132.493C35.3045 135.342 33.0431 138.723 31.5016 142.444C29.9602 146.166 29.1687 150.154 29.1726 154.18V154.18Z" fill="#FF3981"/>
<path d="M315.396 350H8.51664C8.36693 350 8.22336 349.941 8.11749 349.835C8.01163 349.729 7.95215 349.586 7.95215 349.437C7.95215 349.287 8.01163 349.144 8.11749 349.039C8.22336 348.933 8.36693 348.874 8.51664 348.874H315.396C315.546 348.874 315.689 348.933 315.795 349.039C315.901 349.144 315.961 349.287 315.961 349.437C315.961 349.586 315.901 349.729 315.795 349.835C315.689 349.941 315.546 350 315.396 350Z" fill="#EC6A20"/>
<path d="M266.537 212.078C272.81 212.039 278.875 209.83 283.698 205.827C288.608 201.706 291.84 195.937 292.784 189.605C293.339 186.025 293.16 182.37 292.259 178.862C292.204 178.686 292.082 178.538 291.92 178.45C291.758 178.362 291.568 178.34 291.391 178.389C291.213 178.438 291.061 178.554 290.967 178.713C290.873 178.871 290.845 179.06 290.887 179.239C292.407 185.197 291.722 191.502 288.956 196.995C286.831 201.103 283.617 204.55 279.663 206.959C275.71 209.368 271.169 210.648 266.537 210.659C266.352 210.665 266.178 210.743 266.049 210.875C265.921 211.007 265.85 211.184 265.85 211.368C265.85 211.552 265.921 211.729 266.049 211.862C266.178 211.994 266.352 212.072 266.537 212.078V212.078Z" fill="#EC6A20"/>
<path d="M156.712 27.7335C152.665 23.9002 146.276 23.9103 141.602 26.5788C136.358 29.5734 133.98 35.7614 134.1 41.5715C134.235 48.1106 137.439 54.0315 141.576 58.9354C145.986 64.0307 151.116 68.4565 156.807 72.0727C162.482 75.7606 168.622 78.6806 175.067 80.756C175.86 81.0112 176.658 81.2531 177.459 81.4816C177.638 81.5243 177.827 81.4959 177.986 81.4022C178.145 81.3085 178.261 81.157 178.31 80.9795C178.359 80.8021 178.337 80.6125 178.249 80.4509C178.161 80.2892 178.013 80.1681 177.837 80.113C165.46 76.5839 154.208 69.9218 145.172 60.7733C140.871 56.3771 137.048 51.0934 135.873 44.9437C134.834 39.5128 135.982 33.207 140.2 29.3385C144.301 25.5779 151.477 24.7312 155.706 28.7371C156.37 29.3659 157.378 28.3639 156.712 27.7335V27.7335Z" fill="#FFE2E2"/>
<path d="M28.1213 169.109C22.6552 168.431 17.5217 172.268 15.3927 177.114C13.0052 182.548 14.6148 188.812 18.078 193.405C21.892 198.463 27.669 201.411 33.7079 202.976C40.1902 204.656 47.0715 205.11 53.7443 204.8C61.6325 204.435 69.4168 202.856 76.8216 200.119C77.6722 199.804 77.3042 198.431 76.4435 198.75C64.1167 203.317 50.394 204.758 37.4315 202.347C31.6373 201.269 25.7362 199.213 21.4184 195.053C17.506 191.284 14.7383 185.575 15.9157 180.062C17.0857 174.584 22.305 169.807 28.1213 170.529C29.0274 170.641 29.0192 169.221 28.1213 169.109Z" fill="#FFE2E2"/>
<path d="M213.129 292.746L208.551 284.705C208.452 284.549 208.297 284.438 208.118 284.394C207.938 284.351 207.749 284.378 207.59 284.471C207.431 284.564 207.314 284.715 207.264 284.892C207.214 285.07 207.235 285.259 207.323 285.421L211.901 293.463C211.999 293.618 212.155 293.73 212.334 293.773C212.513 293.817 212.702 293.79 212.862 293.697C213.021 293.604 213.138 293.453 213.188 293.275C213.238 293.098 213.216 292.908 213.129 292.746Z" fill="#EC6A20"/>
</g>
<defs>
<clipPath id="clip0_372_10760">
<rect width="325" height="350" fill="white"/>
</clipPath>
</defs>
</svg>
